<mxfile host="app.diagrams.net" modified="2022-08-04T08:42:54.093Z" agent="5.0 (Windows NT 10.0; Win64; x64) AppleWebKit/537.36 (KHTML, like Gecko) Chrome/103.0.5060.134 Safari/537.36 Edg/103.0.1264.77" etag="5xO0OY1tfdgwcknQUTil" version="20.2.3" type="github">
  <diagram id="TQ0BWvvGkKhn6OBYhmcM" name="Page-1">
    <mxGraphModel dx="1038" dy="1671" grid="1" gridSize="10" guides="1" tooltips="1" connect="1" arrows="1" fold="1" page="1" pageScale="1" pageWidth="850" pageHeight="1100" math="0" shadow="0">
      <root>
        <mxCell id="0" />
        <mxCell id="1" parent="0" />
        <mxCell id="wdoa-D4oZudg5_RZFXw1-3" value="" style="edgeStyle=orthogonalEdgeStyle;rounded=0;orthogonalLoop=1;jettySize=auto;html=1;entryX=0;entryY=0.5;entryDx=0;entryDy=0;" edge="1" parent="1" source="wdoa-D4oZudg5_RZFXw1-1" target="wdoa-D4oZudg5_RZFXw1-5">
          <mxGeometry relative="1" as="geometry">
            <mxPoint x="230" y="150" as="targetPoint" />
          </mxGeometry>
        </mxCell>
        <mxCell id="wdoa-D4oZudg5_RZFXw1-1" value="&lt;b&gt;HUBSPOT&amp;nbsp;&lt;/b&gt;" style="rounded=0;whiteSpace=wrap;html=1;" vertex="1" parent="1">
          <mxGeometry x="10" y="120" width="120" height="60" as="geometry" />
        </mxCell>
        <mxCell id="wdoa-D4oZudg5_RZFXw1-5" value="Direct API Integretion" style="rhombus;whiteSpace=wrap;html=1;" vertex="1" parent="1">
          <mxGeometry x="170" y="105" width="90" height="90" as="geometry" />
        </mxCell>
        <mxCell id="wdoa-D4oZudg5_RZFXw1-9" value="" style="endArrow=classic;html=1;rounded=0;exitX=1;exitY=0.5;exitDx=0;exitDy=0;entryX=0;entryY=0.5;entryDx=0;entryDy=0;" edge="1" parent="1" source="wdoa-D4oZudg5_RZFXw1-5">
          <mxGeometry width="50" height="50" relative="1" as="geometry">
            <mxPoint x="400" y="310" as="sourcePoint" />
            <mxPoint x="320" y="150" as="targetPoint" />
          </mxGeometry>
        </mxCell>
        <mxCell id="wdoa-D4oZudg5_RZFXw1-11" value="&lt;font face=&quot;Comic Sans MS&quot;&gt;1. It has an API Key that directly populates the customer data from HubSpot using Microsoft Azure SSIS pipeline to azure Cloud SQL Server DB&lt;br&gt;2. This ETL SSIS integration runs every day over night to populate new users for that day into our destination DB.&lt;br&gt;3.&amp;nbsp; HubSpot&amp;nbsp;data has the transactional data which has information on new customers,&amp;nbsp;upgrades, downgrades, renewals,&amp;nbsp;subscriptions&amp;nbsp;&lt;br&gt;4. First initial&amp;nbsp;run has to be on the existing year worth of transactional data to be populated into destination database using ETL pipeline &lt;br&gt;5. An ETL pipeline should be scheduled daily basis to populate new data into the transactional tables in Azure&lt;br&gt;&lt;br&gt;Tables from HubSpot:&amp;nbsp;Customers,&amp;nbsp;Accounts,&amp;nbsp;Payments&amp;nbsp;&lt;br&gt;Granularity:&amp;nbsp;daily (Data can be modeled using these dates based on quarterly&amp;nbsp;/monthly basis based on the requirement)&lt;br&gt;&lt;/font&gt;" style="shape=note;whiteSpace=wrap;html=1;backgroundOutline=1;darkOpacity=0.05;align=left;" vertex="1" parent="1">
          <mxGeometry x="30" y="-290" width="390" height="280" as="geometry" />
        </mxCell>
        <mxCell id="wdoa-D4oZudg5_RZFXw1-13" value="&lt;b&gt;ETL Pipeline&lt;br&gt;Using Azure SSIS pipeline&lt;br&gt;Insert ,Upsert, Update, Delete&amp;nbsp;&lt;/b&gt;" style="rhombus;whiteSpace=wrap;html=1;" vertex="1" parent="1">
          <mxGeometry x="320" y="82.5" width="310" height="135" as="geometry" />
        </mxCell>
        <mxCell id="wdoa-D4oZudg5_RZFXw1-14" value="" style="endArrow=classic;html=1;rounded=0;exitX=1;exitY=0.5;exitDx=0;exitDy=0;" edge="1" parent="1" source="wdoa-D4oZudg5_RZFXw1-13">
          <mxGeometry width="50" height="50" relative="1" as="geometry">
            <mxPoint x="400" y="280" as="sourcePoint" />
            <mxPoint x="660" y="150" as="targetPoint" />
          </mxGeometry>
        </mxCell>
        <mxCell id="wdoa-D4oZudg5_RZFXw1-15" value="&lt;b&gt;Azure SQL DB&amp;nbsp;&lt;br&gt;(CRM Data)&lt;/b&gt;" style="whiteSpace=wrap;html=1;aspect=fixed;" vertex="1" parent="1">
          <mxGeometry x="660" y="110" width="80" height="80" as="geometry" />
        </mxCell>
        <mxCell id="wdoa-D4oZudg5_RZFXw1-18" value="" style="endArrow=none;html=1;rounded=0;" edge="1" parent="1">
          <mxGeometry width="50" height="50" relative="1" as="geometry">
            <mxPoint x="460" y="70" as="sourcePoint" />
            <mxPoint x="480" y="70" as="targetPoint" />
            <Array as="points">
              <mxPoint x="470" y="30" />
            </Array>
          </mxGeometry>
        </mxCell>
        <mxCell id="wdoa-D4oZudg5_RZFXw1-19" value="&lt;b&gt;STRIPE&amp;nbsp;&lt;/b&gt;" style="rounded=0;whiteSpace=wrap;html=1;" vertex="1" parent="1">
          <mxGeometry y="267.5" width="120" height="60" as="geometry" />
        </mxCell>
        <mxCell id="wdoa-D4oZudg5_RZFXw1-20" value="Direct API Integretion" style="rhombus;whiteSpace=wrap;html=1;" vertex="1" parent="1">
          <mxGeometry x="180" y="252.5" width="90" height="90" as="geometry" />
        </mxCell>
        <mxCell id="wdoa-D4oZudg5_RZFXw1-21" value="" style="endArrow=classic;html=1;rounded=0;fontFamily=Comic Sans MS;exitX=1;exitY=0.5;exitDx=0;exitDy=0;entryX=0;entryY=0.5;entryDx=0;entryDy=0;" edge="1" parent="1" source="wdoa-D4oZudg5_RZFXw1-19" target="wdoa-D4oZudg5_RZFXw1-20">
          <mxGeometry width="50" height="50" relative="1" as="geometry">
            <mxPoint x="390" y="340" as="sourcePoint" />
            <mxPoint x="440" y="290" as="targetPoint" />
          </mxGeometry>
        </mxCell>
        <mxCell id="wdoa-D4oZudg5_RZFXw1-22" value="&lt;b&gt;ETL Pipeline&lt;br&gt;Using Azure SSIS pipeline&lt;br&gt;Insert ,Upsert, Update, Delete&amp;nbsp;&lt;/b&gt;" style="rhombus;whiteSpace=wrap;html=1;" vertex="1" parent="1">
          <mxGeometry x="330" y="230" width="310" height="135" as="geometry" />
        </mxCell>
        <mxCell id="wdoa-D4oZudg5_RZFXw1-24" value="" style="endArrow=classic;html=1;rounded=0;exitX=1;exitY=0.5;exitDx=0;exitDy=0;" edge="1" parent="1" source="wdoa-D4oZudg5_RZFXw1-20">
          <mxGeometry width="50" height="50" relative="1" as="geometry">
            <mxPoint x="270" y="160" as="sourcePoint" />
            <mxPoint x="330" y="298" as="targetPoint" />
            <Array as="points" />
          </mxGeometry>
        </mxCell>
        <mxCell id="wdoa-D4oZudg5_RZFXw1-25" value="&lt;b&gt;Azure SQL DB&amp;nbsp;&lt;br&gt;(Payment Data from Stripe)&lt;/b&gt;" style="whiteSpace=wrap;html=1;aspect=fixed;" vertex="1" parent="1">
          <mxGeometry x="670" y="257.5" width="80" height="80" as="geometry" />
        </mxCell>
        <mxCell id="wdoa-D4oZudg5_RZFXw1-26" value="" style="endArrow=classic;html=1;rounded=0;fontFamily=Comic Sans MS;entryX=0;entryY=0.5;entryDx=0;entryDy=0;" edge="1" parent="1" target="wdoa-D4oZudg5_RZFXw1-25">
          <mxGeometry width="50" height="50" relative="1" as="geometry">
            <mxPoint x="640" y="298" as="sourcePoint" />
            <mxPoint x="440" y="290" as="targetPoint" />
          </mxGeometry>
        </mxCell>
        <mxCell id="wdoa-D4oZudg5_RZFXw1-27" value="&lt;font face=&quot;Comic Sans MS&quot;&gt;1. It has an API Key used to integrate using SSIS that that directly populates the data from Stripe using Microsoft Azure DB&lt;br&gt;2. This ETL SSIS integration runs every day over night to populate new users for that day into our destination DB.&lt;br&gt;3.&amp;nbsp; Stripe has data like customers,&amp;nbsp;payments,&amp;nbsp;accounts,&amp;nbsp;&amp;nbsp;&lt;br&gt;4. First initial&amp;nbsp;run has to be on the existing year worth of transactional data to be populated into destination database using ETL pipeline &lt;br&gt;5. An ETL pipeline should be scheduled daily basis to populate new data into the transactional tables in Azure&lt;br&gt;&lt;br&gt;Some Tables from Stripe ::&amp;nbsp;customers,&amp;nbsp;payments,&amp;nbsp;accounts,products&amp;nbsp;&lt;br&gt;Granualarity:: daily (we can slice and dice the data on monthly , weekly,&amp;nbsp;quaterly , yearly basis)&lt;br&gt;&lt;/font&gt;" style="shape=note;whiteSpace=wrap;html=1;backgroundOutline=1;darkOpacity=0.05;align=left;" vertex="1" parent="1">
          <mxGeometry x="450" y="-290" width="390" height="280" as="geometry" />
        </mxCell>
        <mxCell id="wdoa-D4oZudg5_RZFXw1-29" value="" style="endArrow=classic;html=1;rounded=0;fontFamily=Comic Sans MS;exitX=1;exitY=0.5;exitDx=0;exitDy=0;" edge="1" parent="1" source="wdoa-D4oZudg5_RZFXw1-15">
          <mxGeometry width="50" height="50" relative="1" as="geometry">
            <mxPoint x="570" y="230" as="sourcePoint" />
            <mxPoint x="790" y="390" as="targetPoint" />
            <Array as="points">
              <mxPoint x="780" y="180" />
            </Array>
          </mxGeometry>
        </mxCell>
        <mxCell id="wdoa-D4oZudg5_RZFXw1-30" value="" style="endArrow=classic;html=1;rounded=0;fontFamily=Comic Sans MS;exitX=1;exitY=0.5;exitDx=0;exitDy=0;" edge="1" parent="1" source="wdoa-D4oZudg5_RZFXw1-25">
          <mxGeometry width="50" height="50" relative="1" as="geometry">
            <mxPoint x="570" y="230" as="sourcePoint" />
            <mxPoint x="770" y="390" as="targetPoint" />
            <Array as="points">
              <mxPoint x="770" y="298" />
            </Array>
          </mxGeometry>
        </mxCell>
        <mxCell id="wdoa-D4oZudg5_RZFXw1-37" value="&lt;div style=&quot;text-align: justify;&quot;&gt;&lt;span style=&quot;background-color: initial;&quot;&gt;1. These tables are populated in &lt;b&gt;DEV Server&lt;/b&gt;.&amp;nbsp;&lt;/span&gt;&lt;/div&gt;&lt;div style=&quot;text-align: justify;&quot;&gt;&lt;span style=&quot;background-color: initial;&quot;&gt;2. In DEVELOPMENT Server we have all the information coming from source systems.&lt;/span&gt;&lt;/div&gt;&lt;div style=&quot;text-align: justify;&quot;&gt;&lt;span style=&quot;background-color: initial;&quot;&gt;3. A production server has much more refined data used for our Reporting&amp;nbsp;&lt;/span&gt;&lt;/div&gt;&lt;div style=&quot;text-align: justify;&quot;&gt;&lt;span style=&quot;background-color: initial;&quot;&gt;4. An ETL pipeline should run between DEV and Production Servers daily basis&lt;/span&gt;&lt;/div&gt;&lt;div style=&quot;text-align: justify;&quot;&gt;&lt;br&gt;&lt;/div&gt;" style="shape=note;whiteSpace=wrap;html=1;backgroundOutline=1;darkOpacity=0.05;labelBackgroundColor=none;labelBorderColor=none;fontFamily=Comic Sans MS;" vertex="1" parent="1">
          <mxGeometry x="670" y="390" width="340" height="150" as="geometry" />
        </mxCell>
        <mxCell id="wdoa-D4oZudg5_RZFXw1-47" value="" style="edgeStyle=orthogonalEdgeStyle;rounded=0;orthogonalLoop=1;jettySize=auto;html=1;fontFamily=Comic Sans MS;" edge="1" parent="1" source="wdoa-D4oZudg5_RZFXw1-39" target="wdoa-D4oZudg5_RZFXw1-46">
          <mxGeometry relative="1" as="geometry">
            <Array as="points">
              <mxPoint x="410" y="570" />
              <mxPoint x="310" y="570" />
            </Array>
          </mxGeometry>
        </mxCell>
        <mxCell id="wdoa-D4oZudg5_RZFXw1-39" value="" style="swimlane;startSize=0;labelBackgroundColor=none;labelBorderColor=none;fontFamily=Comic Sans MS;html=1;" vertex="1" parent="1">
          <mxGeometry x="210" y="380" width="320" height="160" as="geometry" />
        </mxCell>
        <mxCell id="wdoa-D4oZudg5_RZFXw1-38" value="&lt;b&gt;HUBSPOT AZURE DB&amp;nbsp;&lt;/b&gt;" style="shape=cylinder3;whiteSpace=wrap;html=1;boundedLbl=1;backgroundOutline=1;size=15;labelBackgroundColor=none;labelBorderColor=none;fontFamily=Comic Sans MS;" vertex="1" parent="wdoa-D4oZudg5_RZFXw1-39">
          <mxGeometry x="40" y="30" width="100" height="130" as="geometry" />
        </mxCell>
        <mxCell id="wdoa-D4oZudg5_RZFXw1-41" value="&lt;b&gt;STRIPE PAYMENTS DATA IN AZURE DATABASE&amp;nbsp;&lt;/b&gt;" style="shape=cylinder3;whiteSpace=wrap;html=1;boundedLbl=1;backgroundOutline=1;size=15;labelBackgroundColor=none;labelBorderColor=none;fontFamily=Comic Sans MS;" vertex="1" parent="wdoa-D4oZudg5_RZFXw1-39">
          <mxGeometry x="165" y="30" width="100" height="130" as="geometry" />
        </mxCell>
        <mxCell id="wdoa-D4oZudg5_RZFXw1-40" value="" style="shape=flexArrow;endArrow=classic;html=1;rounded=0;fontFamily=Comic Sans MS;width=24;endSize=4.2;entryX=1;entryY=0.5;entryDx=0;entryDy=0;endWidth=73;" edge="1" parent="1" target="wdoa-D4oZudg5_RZFXw1-39">
          <mxGeometry width="50" height="50" relative="1" as="geometry">
            <mxPoint x="670" y="460" as="sourcePoint" />
            <mxPoint x="650" y="460" as="targetPoint" />
          </mxGeometry>
        </mxCell>
        <mxCell id="wdoa-D4oZudg5_RZFXw1-42" value="" style="endArrow=none;html=1;rounded=0;fontFamily=Comic Sans MS;exitX=0.5;exitY=1;exitDx=0;exitDy=0;exitPerimeter=0;" edge="1" parent="1" source="wdoa-D4oZudg5_RZFXw1-38">
          <mxGeometry width="50" height="50" relative="1" as="geometry">
            <mxPoint x="520" y="490" as="sourcePoint" />
            <mxPoint x="430" y="590" as="targetPoint" />
          </mxGeometry>
        </mxCell>
        <mxCell id="wdoa-D4oZudg5_RZFXw1-43" value="" style="endArrow=none;html=1;rounded=0;fontFamily=Comic Sans MS;" edge="1" parent="1">
          <mxGeometry width="50" height="50" relative="1" as="geometry">
            <mxPoint x="430" y="590" as="sourcePoint" />
            <mxPoint x="470" y="540" as="targetPoint" />
          </mxGeometry>
        </mxCell>
        <mxCell id="wdoa-D4oZudg5_RZFXw1-44" value="" style="swimlane;startSize=0;labelBackgroundColor=none;labelBorderColor=none;fontFamily=Comic Sans MS;html=1;" vertex="1" parent="1">
          <mxGeometry x="200" y="590" width="510" height="300" as="geometry" />
        </mxCell>
        <mxCell id="wdoa-D4oZudg5_RZFXw1-45" value="1. Populate Dimension and Fact Tables required to Calculate Net Revenue Retention Rate&amp;nbsp;&lt;br&gt;&lt;br&gt;2. Tools Used :: Azure SQL Server Analysis Services&amp;nbsp;&lt;br&gt;&lt;br&gt;3. We create a data warehouse model using this tool and pull in those tables from Production DB&amp;nbsp;&lt;br&gt;&lt;br&gt;4. Create KPIs required to calculate NRR&amp;nbsp;&lt;br&gt;&lt;br&gt;5. We can also slice and dice the data based on quaterly requirement&amp;nbsp;&lt;br&gt;&lt;br&gt;6.Populate this datawarehouse model in the SSAS server online&lt;br&gt;&lt;br&gt;&amp;nbsp;6. Use a reporting tool and connect to the SSAS model and report the KPIs in a better way&amp;nbsp;" style="shape=note;whiteSpace=wrap;html=1;backgroundOutline=1;darkOpacity=0.05;labelBackgroundColor=none;labelBorderColor=none;fontFamily=Comic Sans MS;align=left;" vertex="1" parent="wdoa-D4oZudg5_RZFXw1-44">
          <mxGeometry x="170" width="320" height="270" as="geometry" />
        </mxCell>
        <mxCell id="wdoa-D4oZudg5_RZFXw1-46" value="&lt;b&gt;Azure SSAS&amp;nbsp;&lt;br&gt;(Datawarehouse model)&lt;br&gt;&lt;/b&gt;" style="shape=step;perimeter=stepPerimeter;whiteSpace=wrap;html=1;fixedSize=1;labelBackgroundColor=none;labelBorderColor=none;fontFamily=Comic Sans MS;" vertex="1" parent="wdoa-D4oZudg5_RZFXw1-44">
          <mxGeometry y="90" width="170" height="80" as="geometry" />
        </mxCell>
        <mxCell id="wdoa-D4oZudg5_RZFXw1-48" value="" style="endArrow=classic;html=1;rounded=0;fontFamily=Comic Sans MS;entryX=0;entryY=0.5;entryDx=0;entryDy=0;" edge="1" parent="1" target="wdoa-D4oZudg5_RZFXw1-50">
          <mxGeometry width="50" height="50" relative="1" as="geometry">
            <mxPoint x="710" y="719.5" as="sourcePoint" />
            <mxPoint x="750" y="719.5" as="targetPoint" />
          </mxGeometry>
        </mxCell>
        <mxCell id="wdoa-D4oZudg5_RZFXw1-49" value="&lt;b&gt;PRODUCTION SERVER&amp;nbsp;&lt;/b&gt;" style="text;html=1;align=center;verticalAlign=middle;resizable=0;points=[];autosize=1;strokeColor=none;fillColor=none;fontFamily=Comic Sans MS;" vertex="1" parent="1">
          <mxGeometry x="270" y="385" width="160" height="30" as="geometry" />
        </mxCell>
        <mxCell id="wdoa-D4oZudg5_RZFXw1-50" value="&lt;b&gt;POWER BI&lt;br&gt;(Reporting)&amp;nbsp;&lt;/b&gt;" style="shape=hexagon;perimeter=hexagonPerimeter2;whiteSpace=wrap;html=1;fixedSize=1;labelBackgroundColor=none;labelBorderColor=none;fontFamily=Comic Sans MS;" vertex="1" parent="1">
          <mxGeometry x="761" y="680" width="200" height="80" as="geometry" />
        </mxCell>
        <mxCell id="wdoa-D4oZudg5_RZFXw1-52" value="&lt;i&gt;DATA INGESTION&lt;br&gt;TRACKED DAILY BY SCHEDULING THE ETL PIPELINE IN SQL SERVER AGENT&lt;/i&gt;" style="shape=note;whiteSpace=wrap;html=1;backgroundOutline=1;darkOpacity=0.05;labelBackgroundColor=none;labelBorderColor=none;fontFamily=Comic Sans MS;" vertex="1" parent="1">
          <mxGeometry x="790" y="30" width="200" height="80" as="geometry" />
        </mxCell>
        <mxCell id="wdoa-D4oZudg5_RZFXw1-54" value="" style="curved=1;endArrow=classic;html=1;rounded=0;fontFamily=Comic Sans MS;exitX=-0.044;exitY=0.365;exitDx=0;exitDy=0;exitPerimeter=0;" edge="1" parent="1" source="wdoa-D4oZudg5_RZFXw1-52">
          <mxGeometry width="50" height="50" relative="1" as="geometry">
            <mxPoint x="520" y="240" as="sourcePoint" />
            <mxPoint x="640" y="130" as="targetPoint" />
            <Array as="points">
              <mxPoint x="710" y="80" />
              <mxPoint x="720" y="70" />
              <mxPoint x="680" y="60" />
            </Array>
          </mxGeometry>
        </mxCell>
        <mxCell id="wdoa-D4oZudg5_RZFXw1-57" style="edgeStyle=orthogonalEdgeStyle;rounded=0;orthogonalLoop=1;jettySize=auto;html=1;fontFamily=Comic Sans MS;" edge="1" parent="1" source="wdoa-D4oZudg5_RZFXw1-56">
          <mxGeometry relative="1" as="geometry">
            <mxPoint x="550" y="460" as="targetPoint" />
          </mxGeometry>
        </mxCell>
        <mxCell id="wdoa-D4oZudg5_RZFXw1-56" value="ETL using SSIS" style="text;html=1;align=center;verticalAlign=middle;resizable=0;points=[];autosize=1;strokeColor=none;fillColor=none;fontFamily=Comic Sans MS;" vertex="1" parent="1">
          <mxGeometry x="565" y="445" width="110" height="30" as="geometry" />
        </mxCell>
        <mxCell id="wdoa-D4oZudg5_RZFXw1-59" value="Note : This is just a very highlevel on the implementation of tools and technologies that will help us to calculate the NRR&amp;nbsp;" style="shape=note;whiteSpace=wrap;html=1;backgroundOutline=1;darkOpacity=0.05;labelBackgroundColor=none;labelBorderColor=none;fontFamily=Comic Sans MS;" vertex="1" parent="1">
          <mxGeometry x="800" y="960" width="240" height="100" as="geometry" />
        </mxCell>
      </root>
    </mxGraphModel>
  </diagram>
</mxfile>
